# xmcd
#
# Track frame offsets:
#	182
#	18435
#	38742
#	56520
#	85985
#	102092
#	121835
#	139740
#	166395
#	183900
#	199140
#	209175
#
# Disc length: 2964 seconds
#
# Revision: 9
# Processed by: cddbd v1.5.2PL0 Copyright (c) Steve Scherf et al.
# Submitted via: EZCDAudioConverter 1.3.2.1
#
DISCID=a40b920c
DTITLE=Rory Gallagher - Against The Grain (Remastered)
DYEAR=1975
DGENRE=Blues
TTITLE0=Let Me In
TTITLE1=Cross Me Off Your List
TTITLE2=Ain't Too Good
TTITLE3=Souped-Up Ford
TTITLE4=Bought And Sold
TTITLE5=I Take What I Want
TTITLE6=Lost At Sea
TTITLE7=All Around Man
TTITLE8=Out On The Western Plain
TTITLE9=At The Bottom
TTITLE10=Cluney Blues
TTITLE11=My Baby, Sure
EXTD=
EXTT0=
EXTT1=
EXTT2=
EXTT3=
EXTT4=
EXTT5=
EXTT6=
EXTT7=
EXTT8=
EXTT9=
EXTT10=
EXTT11=
PLAYORDER=
